<svg width="250" height="261" viewBox="0 0 250 261" fill="none" xmlns="http://www.w3.org/2000/svg">
<path d="M70 100C64.3494 104.897 54.0587 105.935 47.7942 106.08C44.5234 106.156 41.415 107.723 39.5531 110.414C34.0011 118.436 30.5146 121.197 21.5 123C19.2536 123.449 17.053 123.626 14.9358 123.588C7.99531 123.462 0 128.207 0 135.149V177V241C0 245.971 4.02944 250 9 250H241C245.971 250 250 245.971 250 241V9C250 4.02944 245.971 0 241 0H128.566C121.998 0 118.492 6.47694 120.173 12.8263C120.704 14.8314 121.161 17.1768 121.5 20C122.835 31.121 112.367 38.7228 109.274 44.0999C108.596 45.2779 108.701 46.6791 108.949 48.0152C110.171 54.5836 108.898 60.8297 104 66C96.244 74.1868 90.9739 73.2836 84.9629 76.5511C82.9599 77.6399 81.8278 79.7593 81.4087 82.0003C80.0854 89.0774 78.2404 92.8584 70 100Z" fill="#FFE644"/>
<path d="M70 100C64.3494 104.897 54.0587 105.935 47.7942 106.08C44.5234 106.156 41.415 107.723 39.5531 110.414C34.0011 118.436 30.5146 121.197 21.5 123C19.2536 123.449 17.053 123.626 14.9358 123.588C7.99531 123.462 0 128.207 0 135.149V177V241C0 245.971 4.02944 250 9 250H241C245.971 250 250 245.971 250 241V9C250 4.02944 245.971 0 241 0H128.566C121.998 0 118.492 6.47694 120.173 12.8263C120.704 14.8314 121.161 17.1768 121.5 20C122.835 31.121 112.367 38.7228 109.274 44.0999C108.596 45.2779 108.701 46.6791 108.949 48.0152C110.171 54.5836 108.898 60.8297 104 66C96.244 74.1868 90.9739 73.2836 84.9629 76.5511C82.9599 77.6399 81.8278 79.7593 81.4087 82.0003C80.0854 89.0774 78.2404 92.8584 70 100Z" fill="#FFE644"/>
<path d="M116.141 220.516H156.805V232H102.078V146.688H116.141V220.516ZM172.742 232V146.688H199.988C204.09 146.727 207.918 147.195 211.473 148.094C215.066 148.992 218.191 150.379 220.848 152.254C223.543 154.129 225.652 156.531 227.176 159.461C228.699 162.352 229.441 165.789 229.402 169.773C229.363 173.992 228.191 177.605 225.887 180.613C223.582 183.582 220.477 185.887 216.57 187.527C218.953 188.191 221.062 189.148 222.898 190.398C224.773 191.609 226.336 193.074 227.586 194.793C228.836 196.512 229.793 198.426 230.457 200.535C231.121 202.605 231.453 204.812 231.453 207.156C231.453 211.219 230.711 214.793 229.227 217.879C227.742 220.965 225.672 223.543 223.016 225.613C220.398 227.684 217.273 229.266 213.641 230.359C210.047 231.414 206.16 231.961 201.98 232H172.742ZM186.863 193.328V220.516H202.215C204.441 220.477 206.473 220.145 208.309 219.52C210.145 218.855 211.727 217.957 213.055 216.824C214.383 215.691 215.418 214.305 216.16 212.664C216.941 211.023 217.332 209.188 217.332 207.156C217.332 205.008 217 203.094 216.336 201.414C215.672 199.695 214.715 198.25 213.465 197.078C212.215 195.906 210.691 195.008 208.895 194.383C207.098 193.719 205.086 193.367 202.859 193.328H186.863ZM186.863 182.605H200.34C202.449 182.566 204.402 182.293 206.199 181.785C208.035 181.238 209.617 180.457 210.945 179.441C212.273 178.387 213.328 177.117 214.109 175.633C214.891 174.109 215.281 172.371 215.281 170.418C215.281 168.27 214.91 166.434 214.168 164.91C213.426 163.387 212.371 162.137 211.004 161.16C209.676 160.184 208.094 159.48 206.258 159.051C204.422 158.582 202.41 158.328 200.223 158.289H186.863V182.605Z" fill="black"/>
<path d="M116.141 220.516H115.141V221.516H116.141V220.516ZM156.805 220.516H157.805V219.516H156.805V220.516ZM156.805 232V233H157.805V232H156.805ZM102.078 232H101.078V233H102.078V232ZM102.078 146.688V145.688H101.078V146.688H102.078ZM116.141 146.688H117.141V145.688H116.141V146.688ZM116.141 221.516H156.805V219.516H116.141V221.516ZM155.805 220.516V232H157.805V220.516H155.805ZM156.805 231H102.078V233H156.805V231ZM103.078 232V146.688H101.078V232H103.078ZM102.078 147.688H116.141V145.688H102.078V147.688ZM115.141 146.688V220.516H117.141V146.688H115.141ZM172.742 232H171.742V233H172.742V232ZM172.742 146.688V145.688H171.742V146.688H172.742ZM199.988 146.688L199.998 145.688H199.988V146.688ZM211.473 148.094L211.228 149.063L211.23 149.064L211.473 148.094ZM220.848 152.254L220.271 153.071L220.277 153.075L220.848 152.254ZM227.176 159.461L226.289 159.922L226.291 159.927L227.176 159.461ZM229.402 169.773L228.402 169.764L228.402 169.764L229.402 169.773ZM225.887 180.613L226.677 181.227L226.68 181.221L225.887 180.613ZM216.57 187.527L216.183 186.605L213.532 187.719L216.302 188.491L216.57 187.527ZM222.898 190.398L222.336 191.225L222.346 191.232L222.356 191.238L222.898 190.398ZM227.586 194.793L226.777 195.381L227.586 194.793ZM230.457 200.535L229.503 200.835L229.505 200.841L230.457 200.535ZM229.227 217.879L228.325 217.445L229.227 217.879ZM223.016 225.613L222.401 224.825L222.395 224.829L223.016 225.613ZM213.641 230.359L213.922 231.319L213.929 231.317L213.641 230.359ZM201.98 232V233L201.99 233L201.98 232ZM186.863 193.328V192.328H185.863V193.328H186.863ZM186.863 220.516H185.863V221.516H186.863V220.516ZM202.215 220.516V221.516H202.224L202.232 221.515L202.215 220.516ZM208.309 219.52L208.631 220.466L208.64 220.463L208.649 220.46L208.309 219.52ZM216.16 212.664L215.257 212.234L215.253 212.243L215.249 212.252L216.16 212.664ZM216.336 201.414L215.403 201.774L215.406 201.782L216.336 201.414ZM208.895 194.383L208.548 195.321L208.557 195.324L208.566 195.327L208.895 194.383ZM202.859 193.328L202.877 192.328L202.868 192.328H202.859V193.328ZM186.863 182.605H185.863V183.605H186.863V182.605ZM200.34 182.605V183.605H200.349L200.358 183.605L200.34 182.605ZM206.199 181.785L206.471 182.748L206.485 182.744L206.199 181.785ZM210.945 179.441L211.553 180.236L211.56 180.23L211.567 180.225L210.945 179.441ZM214.109 175.633L214.994 176.099L214.999 176.089L214.109 175.633ZM211.004 161.16L210.411 161.966L210.423 161.974L211.004 161.16ZM206.258 159.051L206.01 160.02L206.02 160.022L206.03 160.024L206.258 159.051ZM200.223 158.289L200.241 157.289L200.232 157.289H200.223V158.289ZM186.863 158.289V157.289H185.863V158.289H186.863ZM173.742 232V146.688H171.742V232H173.742ZM172.742 147.688H199.988V145.688H172.742V147.688ZM199.979 147.687C204.01 147.726 207.758 148.186 211.228 149.063L211.718 147.124C208.078 146.204 204.17 145.727 199.998 145.688L199.979 147.687ZM211.23 149.064C214.721 149.936 217.729 151.276 220.271 153.071L221.424 151.437C218.654 149.481 215.412 148.048 211.715 147.124L211.23 149.064ZM220.277 153.075C222.838 154.857 224.839 157.135 226.289 159.922L228.063 159C226.465 155.927 224.248 153.401 221.419 151.433L220.277 153.075ZM226.291 159.927C227.722 162.642 228.44 165.909 228.402 169.764L230.402 169.783C230.443 165.669 229.676 162.061 228.06 158.995L226.291 159.927ZM228.402 169.764C228.365 173.792 227.251 177.189 225.093 180.005L226.68 181.221C229.132 178.022 230.361 174.192 230.402 169.783L228.402 169.764ZM225.097 180C222.91 182.816 219.951 185.023 216.183 186.605L216.958 188.449C221.002 186.751 224.254 184.348 226.677 181.227L225.097 180ZM216.302 188.491C218.592 189.129 220.599 190.043 222.336 191.225L223.461 189.572C221.526 188.254 219.315 187.254 216.839 186.564L216.302 188.491ZM222.356 191.238C224.133 192.386 225.603 193.767 226.777 195.381L228.395 194.205C227.069 192.381 225.414 190.833 223.441 189.558L222.356 191.238ZM226.777 195.381C227.961 197.009 228.87 198.825 229.503 200.835L231.411 200.235C230.716 198.027 229.711 196.015 228.395 194.205L226.777 195.381ZM229.505 200.841C230.135 202.805 230.453 204.908 230.453 207.156H232.453C232.453 204.717 232.107 202.406 231.409 200.23L229.505 200.841ZM230.453 207.156C230.453 211.096 229.734 214.518 228.325 217.445L230.128 218.312C231.688 215.068 232.453 211.341 232.453 207.156H230.453ZM228.325 217.445C226.907 220.395 224.933 222.851 222.401 224.825L223.63 226.402C226.41 224.235 228.578 221.535 230.128 218.312L228.325 217.445ZM222.395 224.829C219.889 226.811 216.881 228.339 213.352 229.402L213.929 231.317C217.666 230.192 220.907 228.556 223.636 226.398L222.395 224.829ZM213.359 229.4C209.863 230.426 206.069 230.962 201.971 231L201.99 233C206.251 232.96 210.23 232.402 213.922 231.319L213.359 229.4ZM201.98 231H172.742V233H201.98V231ZM185.863 193.328V220.516H187.863V193.328H185.863ZM186.863 221.516H202.215V219.516H186.863V221.516ZM202.232 221.515C204.548 221.475 206.683 221.129 208.631 220.466L207.986 218.573C206.262 219.16 204.335 219.478 202.197 219.516L202.232 221.515ZM208.649 220.46C210.584 219.76 212.274 218.804 213.704 217.585L212.406 216.063C211.179 217.11 209.705 217.951 207.968 218.579L208.649 220.46ZM213.704 217.585C215.147 216.354 216.27 214.847 217.071 213.076L215.249 212.252C214.566 213.763 213.618 215.029 212.406 216.063L213.704 217.585ZM217.063 213.094C217.915 211.304 218.332 209.319 218.332 207.156H216.332C216.332 209.056 215.967 210.743 215.257 212.234L217.063 213.094ZM218.332 207.156C218.332 204.905 217.984 202.863 217.266 201.046L215.406 201.782C216.016 203.324 216.332 205.11 216.332 207.156H218.332ZM217.269 201.054C216.555 199.206 215.517 197.631 214.149 196.349L212.781 197.808C213.913 198.869 214.789 200.185 215.403 201.774L217.269 201.054ZM214.149 196.349C212.786 195.071 211.137 194.104 209.223 193.438L208.566 195.327C210.245 195.911 211.644 196.742 212.781 197.808L214.149 196.349ZM209.241 193.445C207.323 192.736 205.198 192.369 202.877 192.328L202.842 194.328C204.974 194.365 206.872 194.701 208.548 195.321L209.241 193.445ZM202.859 192.328H186.863V194.328H202.859V192.328ZM186.863 183.605H200.34V181.605H186.863V183.605ZM200.358 183.605C202.543 183.565 204.582 183.281 206.471 182.747L205.927 180.823C204.223 181.305 202.356 181.568 200.321 181.606L200.358 183.605ZM206.485 182.744C208.42 182.167 210.115 181.335 211.553 180.236L210.338 178.647C209.119 179.579 207.65 180.31 205.914 180.827L206.485 182.744ZM211.567 180.225C213.003 179.084 214.148 177.707 214.994 176.099L213.224 175.167C212.509 176.527 211.544 177.689 210.323 178.658L211.567 180.225ZM214.999 176.089C215.862 174.406 216.281 172.507 216.281 170.418H214.281C214.281 172.235 213.919 173.813 213.22 175.176L214.999 176.089ZM216.281 170.418C216.281 168.157 215.891 166.164 215.067 164.472L213.269 165.348C213.929 166.704 214.281 168.382 214.281 170.418H216.281ZM215.067 164.472C214.252 162.8 213.089 161.421 211.585 160.346L210.423 161.974C211.653 162.853 212.599 163.973 213.269 165.348L215.067 164.472ZM211.596 160.355C210.145 159.287 208.434 158.533 206.486 158.077L206.03 160.024C207.753 160.428 209.207 161.08 210.412 161.966L211.596 160.355ZM206.505 158.082C204.584 157.591 202.494 157.329 200.241 157.289L200.205 159.289C202.326 159.327 204.26 159.573 206.01 160.02L206.505 158.082ZM200.223 157.289H186.863V159.289H200.223V157.289ZM185.863 158.289V182.605H187.863V158.289H185.863Z" fill="black"/>
</svg>
